# xmcd
#
# Track frame offsets:
#	150
#	20326
#	40380
#	55550
#	69554
#	83804
#	102127
#	123088
#	134552
#	150661
#	167794
#	180991
#	198078
#
# Disc length: 2794 seconds
#
# Revision: 1
# Processed by: cddbd v1.4PL0 Copyright (c) Steve Scherf et al.
# Submitted via: audiograbber 1.81.03
#
DISCID=9e0ae80d
DTITLE=The Harpbreakers - Come on down here
DYEAR=1900
DGENRE=Blues
TTITLE0=Come On Down Here
TTITLE1=Things Are Looking Up
TTITLE2=Key Hole
TTITLE3=First Time
TTITLE4=Cry Cry Baby
TTITLE5=Boogie Stew
TTITLE6=Rock This House
TTITLE7=One Direction
TTITLE8=Wait On Time
TTITLE9=She Knock Me Out
TTITLE10=Taxi
TTITLE11=Don't You Worry
TTITLE12=Stupid Cupid
EXTD=
EXTT0=
EXTT1=
EXTT2=
EXTT3=
EXTT4=
EXTT5=
EXTT6=
EXTT7=
EXTT8=
EXTT9=
EXTT10=
EXTT11=
EXTT12=
PLAYORDER=
